<svg xmlns="http://www.w3.org/2000/svg" viewBox="0 0 520 720">
      <defs>
        <linearGradient id="g" x1="0" y1="0" x2="1" y2="1">
          <stop offset="0" stop-color="#d6c0a2"/>
          <stop offset=".52" stop-color="#101010"/>
          <stop offset="1" stop-color="#11100e"/>
        </linearGradient>
        <radialGradient id="r" cx=".48" cy=".18" r=".77">
          <stop offset="0" stop-color="#f7e7c7" stop-opacity=".26"/>
          <stop offset="1" stop-color="#000" stop-opacity="0"/>
        </radialGradient>
        <filter id="shadow"><feDropShadow dx="0" dy="36" stdDeviation="27" flood-color="#000" flood-opacity=".6"/></filter>
      </defs>
      <rect width="520" height="720" rx="34" fill="url(#g)"/>
      <rect width="520" height="720" rx="34" fill="url(#r)"/>
      <g opacity=".14">
        <path d="M42 95 H478 M42 628 H478" stroke="#f4ead9"/>
        <path d="M70 50 V670 M450 50 V670" stroke="#f4ead9"/>
      </g>
      <g filter="url(#shadow)">
        <path d="M278 160 L354 112 L434 170 L397 254 L397 612 L153 612 L153 254 L116 170 L196 112 Z" fill="#6b5138" stroke="#f4ead9" stroke-width="3"/>
        <path d="M198 113 L276 182 L352 113 L321 90 L276 139 L229 90 Z" fill="#101010" opacity=".95"/>
        <path d="M277 184 L277 610" stroke="#f4ead9" stroke-width="3" opacity=".42"/>
        <circle cx="277" cy="242" r="5" fill="#f4ead9"/><circle cx="277" cy="306" r="5" fill="#f4ead9"/><circle cx="277" cy="370" r="5" fill="#f4ead9"/>
        </g>
      <text x="42" y="58" fill="#f4ead9" font-family="Arial, sans-serif" font-size="22" letter-spacing="6">MARENZO</text>
      <text x="42" y="675" fill="#f4ead9" opacity=".8" font-family="Arial, sans-serif" font-size="15" letter-spacing="3">SAND CASUAL SHIRT</text>
    </svg>